<svg width="49" height="48" viewBox="0 0 49 48" fill="none" xmlns="http://www.w3.org/2000/svg">
<path d="M12.4396 17.1552C13.0404 16.1433 13.7677 15.2105 14.6057 14.3883L7.47515 6.64124C5.68858 8.34876 4.15497 10.3093 2.95337 12.4911L12.4396 17.1552Z" fill="#63B335"/>
<path d="M29.8972 11.7003C30.9723 12.1904 31.9684 12.807 32.8854 13.5343L40.0159 5.81881C38.1345 4.20615 36 2.89389 33.6917 1.89783L29.8972 11.7003Z" fill="#E5B735"/>
<path d="M46.2431 14.0221L36.7726 18.702C37.2153 19.7455 37.5474 20.8522 37.7213 22.0064L48.251 21.0261C47.9506 18.5597 47.255 16.2039 46.2431 14.0221Z" fill="#C51C2E"/>
<path d="M36.0958 17.3262L45.5662 12.6621C44.3962 10.4961 42.8942 8.53559 41.1551 6.84387L34.0088 14.5752C34.8151 15.3973 35.5266 16.3301 36.0958 17.3262Z" fill="#4C9F37"/>
<path d="M10.5614 24C10.5614 23.7945 10.5614 23.5889 10.5772 23.3676L0.0474274 22.4189C0.0158086 22.9407 0 23.4624 0 23.9842C0 25.9921 0.252966 27.9368 0.711467 29.7866L10.8934 26.8775C10.672 25.9763 10.5614 24.996 10.5614 24Z" fill="#3F7F45"/>
<path d="M34.7854 32.5663C34.0265 33.4675 33.1727 34.2738 32.2083 34.9537L37.7736 43.8707C39.8289 42.4794 41.6788 40.7877 43.2282 38.8588L34.7854 32.5663Z" fill="#FCC310"/>
<path d="M37.868 23.9973C37.868 24.9775 37.7574 25.9578 37.5676 26.8748L47.7337 29.7839C48.208 27.9341 48.4452 25.9894 48.4452 23.9973C48.4452 23.5072 48.4294 23.017 48.3978 22.5111L37.868 23.5072C37.868 23.6653 37.868 23.8392 37.868 23.9973Z" fill="#E8422E"/>
<path d="M13.8178 32.7743L5.39087 39.1143C6.9561 41.0273 8.82173 42.6716 10.8929 44.0471L16.4582 35.1459C15.4779 34.466 14.5925 33.6597 13.8178 32.7743Z" fill="#F59D2D"/>
<path d="M10.7193 21.8642C10.909 20.6942 11.241 19.5559 11.7311 18.5124L2.26069 13.8325C1.2172 16.0302 0.489919 18.4175 0.173706 20.9314L10.7193 21.8642Z" fill="#1896D4"/>
<path d="M36.4767 44.679L30.9272 35.7777C29.9154 36.3311 28.8403 36.7896 27.6703 37.09L29.6466 47.3826C32.0814 46.8292 34.3739 45.9122 36.4767 44.679Z" fill="#A31B43"/>
<path d="M37.1533 28.3311C36.7897 29.3904 36.2837 30.418 35.6829 31.335L44.1257 37.6434C45.4854 35.6829 46.5763 33.5169 47.3194 31.2086L37.1533 28.3311Z" fill="#2EBCE0"/>
<path d="M26.1811 37.3912C25.5329 37.4861 24.8847 37.5335 24.2048 37.5335C23.6673 37.5335 23.1455 37.5019 22.608 37.4387L20.6475 47.7313C21.8016 47.921 23.0032 48 24.2048 48C25.5329 48 26.861 47.8894 28.1258 47.668L26.1811 37.3912Z" fill="#ED6930"/>
<mask id="mask0_1_200" style="mask-type:luminance" maskUnits="userSpaceOnUse" x="23" y="0" width="13" height="14">
<path d="M23.7931 0H35.9355V13.2966H23.7931V0Z" fill="white"/>
</mask>
<g mask="url(#mask0_1_200)">
<path d="M25.0901 10.495C26.2601 10.5741 27.3984 10.7954 28.4577 11.1432L32.2522 1.37239C29.9913 0.581869 27.5723 0.123369 25.0743 0.0126953V10.495H25.0901Z" fill="#E6243C"/>
</g>
<path d="M21.1203 37.1846C19.9187 36.9159 18.7961 36.489 17.7526 35.9198L12.1874 44.8369C14.3376 46.0543 16.6775 46.9555 19.1598 47.4772L21.1203 37.1846Z" fill="#DE1868"/>
<mask id="mask1_1_200" style="mask-type:luminance" maskUnits="userSpaceOnUse" x="15" y="0" width="9" height="14">
<path d="M15.6979 0H23.7929V13.2966H15.6979V0Z" fill="white"/>
</mask>
<g mask="url(#mask1_1_200)">
<path d="M20.1107 11.0831C21.2016 10.7353 22.3558 10.5297 23.5574 10.4823V0C21.0277 0.0790511 18.5771 0.537556 16.2846 1.31227L20.1107 11.0831Z" fill="#1A496A"/>
</g>
<path d="M12.8843 31.5563C12.2044 30.576 11.6669 29.5009 11.2716 28.3625L1.12134 31.24C1.89605 33.6432 3.0344 35.8725 4.47314 37.8962L12.8843 31.5563Z" fill="#C99A2D"/>
<path d="M15.7485 13.3763C16.6497 12.6806 17.63 12.0956 18.6735 11.6371L14.8473 1.85046C12.5706 2.79909 10.4837 4.07973 8.61804 5.64497L15.7485 13.3763Z" fill="#02699E"/>
</svg>
